<svg width="370" height="301" viewBox="0 0 370 301" fill="none" xmlns="http://www.w3.org/2000/svg">
<mask id="path-1-inside-1_368_2" fill="white">
<path fill-rule="evenodd" clip-rule="evenodd" d="M36.8617 204.498C37.757 173.467 25.325 145.146 4.7512 125.029C35.0567 106.939 55.7581 74.226 56.8513 36.3326C56.8564 36.1567 56.861 35.9809 56.8652 35.8052C60.3672 36.2553 63.9242 36.5366 67.528 36.6406C98.817 37.5433 127.351 24.8958 147.497 4.01417C166.406 26.0225 194.164 40.294 225.453 41.1967C247.299 41.827 267.803 35.8515 285.046 25.0796C294.321 65.2099 326.285 96.9138 367.046 105.473C354.163 122.548 346.27 143.647 345.606 166.656C345.085 184.712 349.077 201.851 356.559 216.989C327.673 223.429 303.077 241.607 288.216 266.386C273.011 257.239 255.313 251.761 236.312 251.213C200.245 250.172 167.839 267.136 147.72 293.962C132.526 255.367 95.4539 227.559 51.3711 226.287C45.389 226.114 39.5076 226.437 33.7663 227.218C35.5749 219.921 36.6361 212.319 36.8617 204.498Z"/>
</mask>
<path fill-rule="evenodd" clip-rule="evenodd" d="M36.8617 204.498C37.757 173.467 25.325 145.146 4.7512 125.029C35.0567 106.939 55.7581 74.226 56.8513 36.3326C56.8564 36.1567 56.861 35.9809 56.8652 35.8052C60.3672 36.2553 63.9242 36.5366 67.528 36.6406C98.817 37.5433 127.351 24.8958 147.497 4.01417C166.406 26.0225 194.164 40.294 225.453 41.1967C247.299 41.827 267.803 35.8515 285.046 25.0796C294.321 65.2099 326.285 96.9138 367.046 105.473C354.163 122.548 346.27 143.647 345.606 166.656C345.085 184.712 349.077 201.851 356.559 216.989C327.673 223.429 303.077 241.607 288.216 266.386C273.011 257.239 255.313 251.761 236.312 251.213C200.245 250.172 167.839 267.136 147.72 293.962C132.526 255.367 95.4539 227.559 51.3711 226.287C45.389 226.114 39.5076 226.437 33.7663 227.218C35.5749 219.921 36.6361 212.319 36.8617 204.498Z" fill="white"/>
<path d="M4.7512 125.029L-5.4998 107.856L-27.8033 121.169L-9.23135 139.329L4.7512 125.029ZM56.8652 35.8052L59.4146 15.9684L37.4036 13.1396L36.871 35.3252L56.8652 35.8052ZM147.497 4.01417L162.667 -9.01946L148.354 -25.6786L133.104 -9.87237L147.497 4.01417ZM285.046 25.0796L304.532 20.5757L298.22 -6.73242L274.449 8.11738L285.046 25.0796ZM367.046 105.473L383.011 117.519L401.983 92.374L371.156 85.9004L367.046 105.473ZM356.559 216.989L360.911 236.51L385.777 230.967L374.489 208.128L356.559 216.989ZM288.216 266.386L277.906 283.524L295.067 293.847L305.368 276.672L288.216 266.386ZM147.72 293.962L129.111 301.289L142.231 334.615L163.721 305.962L147.72 293.962ZM33.7663 227.218L14.3537 222.407L7.26536 251.006L36.4617 247.036L33.7663 227.218ZM-9.23135 139.329C7.5185 155.707 17.5977 178.7 16.87 203.921L56.8534 205.074C57.9163 168.233 43.1315 134.585 18.7337 110.729L-9.23135 139.329ZM36.8596 35.7558C35.9717 66.5324 19.1836 93.122 -5.4998 107.856L15.0022 142.202C50.9298 120.756 75.5444 81.9196 76.843 36.9093L36.8596 35.7558ZM36.871 35.3252C36.8676 35.4685 36.8638 35.612 36.8596 35.7558L76.843 36.9093C76.849 36.7014 76.8545 36.4933 76.8595 36.2852L36.871 35.3252ZM68.1047 16.6489C65.1617 16.564 62.2631 16.3345 59.4146 15.9684L54.3159 55.6421C58.4714 56.1761 62.6866 56.5092 66.9512 56.6323L68.1047 16.6489ZM133.104 -9.87237C116.701 7.12885 93.5343 17.3825 68.1047 16.6489L66.9512 56.6323C104.1 57.704 138 42.6627 161.891 17.9007L133.104 -9.87237ZM226.029 21.205C200.6 20.4714 178.062 8.89911 162.667 -9.01946L132.327 17.0478C154.751 43.146 187.727 60.1167 224.876 61.1884L226.029 21.205ZM274.449 8.11738C260.447 16.8649 243.814 21.7181 226.029 21.205L224.876 61.1884C250.785 61.9359 275.159 54.838 295.642 42.0418L274.449 8.11738ZM371.156 85.9004C338.074 78.9532 312.067 53.1737 304.532 20.5757L265.56 29.5835C276.576 77.2461 314.496 114.874 362.936 125.047L371.156 85.9004ZM365.598 167.233C366.138 148.507 372.546 131.39 383.011 117.519L351.08 93.4278C335.78 113.706 326.402 138.788 325.615 166.079L365.598 167.233ZM374.489 208.128C368.42 195.848 365.174 181.943 365.598 167.233L325.615 166.079C324.997 187.481 329.734 207.853 338.63 225.851L374.489 208.128ZM305.368 276.672C317.464 256.503 337.481 241.733 360.911 236.51L352.208 197.468C317.864 205.125 288.69 226.711 271.064 256.099L305.368 276.672ZM235.735 271.204C251.212 271.651 265.57 276.103 277.906 283.524L298.525 249.248C280.452 238.375 259.413 231.871 236.889 231.221L235.735 271.204ZM163.721 305.962C180.108 284.112 206.438 270.359 235.735 271.204L236.889 231.221C194.052 229.985 155.571 250.16 131.72 281.962L163.721 305.962ZM50.7943 246.279C86.5915 247.311 116.745 269.88 129.111 301.289L166.33 286.636C148.307 240.855 104.316 207.806 51.9478 206.295L50.7943 246.279ZM36.4617 247.036C41.1231 246.402 45.9102 246.138 50.7943 246.279L51.9478 206.295C44.8678 206.091 37.8921 206.473 31.071 207.4L36.4617 247.036ZM16.87 203.921C16.6858 210.305 15.8207 216.487 14.3537 222.407L53.179 232.029C55.3291 223.354 56.5863 214.333 56.8534 205.074L16.87 203.921Z" fill="black" mask="url(#path-1-inside-1_368_2)"/>
<path d="M140.145 221.582C138.035 221.582 136.16 220.586 134.52 218.594C132.879 216.602 132.117 214.492 132.234 212.266L132.234 210.859C132.469 206.875 133.348 196.973 134.871 181.152C135.926 168.965 136.453 159.063 136.453 151.445C136.453 140.195 135.75 129.59 134.344 119.629C133.641 114.121 132.117 111.367 129.773 111.367C128.484 111.367 125.965 111.953 122.215 113.125C118.582 114.297 115.711 114.883 113.602 114.883C106.922 114.883 103.582 111.543 103.582 104.863C103.582 99.707 106.219 94.1406 111.492 88.1641C115.477 83.5938 120.281 79.4922 125.906 75.8594C128.25 72.3438 132.41 70.5859 138.387 70.5859C145.77 70.5859 150.281 73.2227 151.922 78.4961C153.328 82.832 154.5 90.6836 155.437 102.051C156.258 111.309 156.668 119.395 156.668 126.309C156.668 135.566 155.906 146.699 154.383 159.707C152.977 170.723 151.57 181.738 150.164 192.754C149.93 196.973 149.168 203.184 147.879 211.387C146.121 218.184 143.543 221.582 140.145 221.582ZM224.871 195.215C223.23 195.215 221.648 194.629 220.125 193.457C218.602 192.168 217.898 190.762 218.016 189.238L218.016 188.359C218.25 185.898 218.836 180.801 219.773 173.066C220.477 166.738 220.828 161.582 220.828 157.598C220.828 154.902 219.363 153.262 216.434 152.676C213.621 152.09 208.23 151.387 200.262 150.566C193.23 149.98 187.84 149.102 184.09 147.93C179.871 146.641 177.762 144.59 177.762 141.777C177.762 140.137 178.348 138.613 179.52 137.207C180.691 135.684 182.039 134.98 183.562 135.098L184.266 135.098C186.727 135.215 191.941 135.742 199.91 136.68C206.238 137.383 211.395 137.734 215.379 137.734C217.605 137.734 218.719 136.328 218.719 133.516C218.719 127.188 215.789 118.105 209.93 106.27C210.047 102.754 213.797 100.996 221.18 100.996C227.273 100.996 231.023 102.52 232.43 105.566C233.836 108.613 234.832 112.715 235.418 117.871C235.77 122.09 236.121 126.309 236.473 130.527C236.824 133.691 238.289 135.273 240.867 135.273C243.562 135.273 247.898 134.219 253.875 132.109C258.797 130.234 262.957 128.418 266.355 126.66C269.988 127.012 271.805 130.879 271.805 138.262C271.805 144.121 270.223 147.754 267.059 149.16C264.715 150.215 259.617 151.211 251.766 152.148C244.031 152.969 239.402 153.848 237.879 154.785C236.355 155.723 235.125 159.766 234.187 166.914C232.664 178.281 231.785 184.492 231.551 185.547C230.145 191.992 227.918 195.215 224.871 195.215Z" fill="black"/>
</svg>
