<svg width="256" height="54" viewBox="0 0 256 54" fill="none" xmlns="http://www.w3.org/2000/svg">
<path d="M41.2383 49.7734C40.5352 49.7734 39.9102 49.4609 39.3633 48.8359C38.8555 48.2109 38.6016 47.5469 38.6016 46.8438C38.6016 46.0625 38.6797 44.9102 38.8359 43.3867C38.9922 41.8242 39.0703 40.6523 39.0703 39.8711C39.0703 38.3867 38.875 36.1016 38.4844 33.0156C38.0547 29.3828 37.6055 27.5664 37.1367 27.5664C36.7461 27.7227 35.8086 29.6758 34.3242 33.4258C32.4883 38.1523 31.0234 41.5508 29.9297 43.6211C27.9766 47.2148 26.1992 49.0117 24.5977 49.0117C22.6055 49.0117 20.3398 46.8633 17.8008 42.5664C16.1992 39.4805 14.5781 36.4141 12.9375 33.3672C12.7031 32.9375 12.4297 32.7227 12.1172 32.7227C11.8438 32.7227 11.6484 32.8789 11.5312 33.1914C11.1797 34.2852 10.8867 35.75 10.6523 37.5859C10.3008 40.2422 10.1055 41.707 10.0664 41.9805C9.83203 43.1914 9.53906 44.9688 9.1875 47.3125C9.10938 47.9766 8.97266 48.9336 8.77734 50.1836C8.26953 52.293 7.44922 53.3477 6.31641 53.3477C5.61328 53.3477 4.96875 53.0156 4.38281 52.3516C3.79688 51.7266 3.52344 51.082 3.5625 50.418V50.0078C3.64062 49.1094 3.875 46.2969 4.26562 41.5703C4.53906 38.1328 4.67578 35.3008 4.67578 33.0742C4.67578 23.8555 3.30859 15.7305 0.574219 8.69922C0.652344 7.83984 1.33594 7.17578 2.625 6.70703C3.5625 6.39453 4.57812 6.23828 5.67188 6.23828C8.71875 6.23828 10.5547 7.11719 11.1797 8.875C11.6484 10.125 11.9414 11.7852 12.0586 13.8555C12.1758 16.5117 12.293 18.1719 12.4102 18.8359C12.918 21.5703 14.3438 25.5156 16.6875 30.6719C19.4609 36.8047 21.7656 39.8711 23.6016 39.8711C25.75 39.8711 28.1133 35.3203 30.6914 26.2188C31.3555 23.9141 32.7227 18.1719 34.793 8.99219C34.7539 8.83594 34.4414 7.99609 33.8555 6.47266C33.3867 5.26172 33.1523 4.48047 33.1523 4.12891C33.1523 3.23047 33.875 2.56641 35.3203 2.13672C36.3359 1.82422 37.4492 1.66797 38.6602 1.66797C41.707 1.66797 43.5234 2.44922 44.1094 4.01172C44.6562 5.41797 45.125 8.19141 45.5156 12.332C45.8281 15.8867 45.9844 18.7969 45.9844 21.0625C45.9844 23.9922 45.4766 30.5352 44.4609 40.6914C44.3828 41.9805 44.1484 43.9336 43.7578 46.5508C43.2109 48.6992 42.3711 49.7734 41.2383 49.7734ZM87.8203 44.0898C87.8203 44.3633 87.8203 44.6367 87.8203 44.9102C87.8203 45.9648 87.5859 46.9219 87.1172 47.7812C86.5312 48.7578 85.7305 49.2461 84.7148 49.2461C83.8945 49.2461 83.1719 48.6016 82.5469 47.3125C82.1172 46.2969 81.6875 45.2812 81.2578 44.2656C80.9453 43.6406 80.4961 42.6836 79.9102 41.3945L79.1484 40.75L78.2695 40.5156C68.9336 42.1953 63.2695 43.6797 61.2773 44.9688C60.6914 45.3594 59.8906 46.6875 58.875 48.9531C58.0547 50.7891 56.8828 51.707 55.3594 51.707C54.5391 51.707 53.8164 51.3945 53.1914 50.7695C52.6055 50.1445 52.3125 49.4219 52.3125 48.6016C52.3125 47.9766 52.7227 47 53.543 45.6719C54.168 44.7344 54.793 43.7969 55.418 42.8594C62.0977 31.6484 66.2773 21.8828 67.957 13.5625C68.2695 11.9219 68.4258 9.14844 68.4258 5.24219C68.4258 3.79688 69.7734 3.07422 72.4688 3.07422C75.0859 3.07422 76.3945 3.81641 76.3945 5.30078C76.3945 5.57422 76.2773 6.41406 76.043 7.82031C77.1758 12.3906 78.3086 16.9609 79.4414 21.5312C80.8477 26.8438 82.2344 31.3555 83.6016 35.0664C84.3438 35.1055 85.0664 35.3789 85.7695 35.8867C86.4727 36.3945 86.8242 37 86.8242 37.7031C86.8242 38.4844 86.3359 39.0898 85.3594 39.5195C85.3594 39.5586 86.1797 41.082 87.8203 44.0898ZM76.6875 34.9492V34.1875C76.0625 32.3125 75.0273 29.5781 73.582 25.9844C73.3086 25.3984 72.9766 25.1055 72.5859 25.1055C72.1172 25.1055 71.668 25.5352 71.2383 26.3945C69.3242 30.1445 67.4883 33.6016 65.7305 36.7656L65.9062 37.4102L66.2578 37.6445C69.8906 36.707 73.2109 36.043 76.2188 35.6523L76.6875 34.9492ZM132.469 27.2734C132.469 42.4297 129.402 50.0078 123.27 50.0078C120.691 50.0078 117.957 48.4062 115.066 45.2031C113.27 43.2109 111.141 40.2227 108.68 36.2383C106.648 32.9961 105.477 31.3555 105.164 31.3164C104.812 31.4336 104.227 34.1289 103.406 39.4023C102.43 45.5352 101.902 48.7383 101.824 49.0117C101.277 51.1211 100.438 52.1758 99.3047 52.1758C98.5625 52.1758 97.9375 51.8828 97.4297 51.2969C96.9219 50.6719 96.668 50.0078 96.668 49.3047C96.668 48.25 96.7852 46.8633 97.0195 45.1445C97.332 42.9961 97.5273 41.6289 97.6055 41.043C97.8398 37.918 97.957 34.8906 97.957 31.9609C97.957 22.7422 96.6094 14.6172 93.9141 7.58594C93.9531 6.6875 94.6562 6.00391 96.0234 5.53516C97 5.22266 98.0547 5.06641 99.1875 5.06641C102.195 5.06641 103.992 5.84766 104.578 7.41016C104.93 8.26953 105.145 9.53906 105.223 11.2188C105.301 13.0547 105.438 14.3242 105.633 15.0273C105.75 15.3789 106.414 16.9609 107.625 19.7734C114.227 35.2422 119.305 42.9766 122.859 42.9766C124.891 42.9766 125.906 40.2422 125.906 34.7734C125.906 25.9844 123.797 15.3984 119.578 3.01562C119.617 2.11719 120.301 1.41406 121.629 0.90625C122.605 0.554688 123.641 0.378906 124.734 0.378906C127.43 0.378906 129.09 1.19922 129.715 2.83984C129.832 3.11328 130.047 4.08984 130.359 5.76953C131.766 12.957 132.469 20.125 132.469 27.2734ZM175.359 34.9492C175.359 36.9414 174.305 39.2266 172.195 41.8047C170.359 44.1094 168.426 45.7891 166.395 46.8438C159.324 50.5938 153.367 52.4688 148.523 52.4688C145.086 52.4688 142.41 51.3555 140.496 49.1289C138.66 47.0586 137.742 44.3047 137.742 40.8672C137.742 35.5156 139.871 28.6211 144.129 20.1836C148.387 11.8633 152.664 6.00391 156.961 2.60547C157.703 2.01953 158.387 1.74609 159.012 1.78516H159.305C160.555 1.98047 161.59 3.13281 162.41 5.24219C162.488 5.51562 162.938 7.15625 163.758 10.1641C164.891 14.2266 165.457 16.8438 165.457 18.0156C165.457 18.9531 165.281 19.793 164.93 20.5352C164.539 21.5508 163.934 22.0586 163.113 22.0586C162.215 22.0586 161.16 21.2383 159.949 19.5977C158.777 17.957 158.035 17.1367 157.723 17.1367C157.488 17.1367 157.156 17.293 156.727 17.6055C153.719 19.9883 150.945 23.3086 148.406 27.5664C145.672 32.1758 144.305 36.2188 144.305 39.6953C144.305 44.6953 146.824 47.1953 151.863 47.1953C153.855 47.1953 156.512 46.3359 159.832 44.6172C162.801 43.0547 165.125 41.4531 166.805 39.8125C167.156 39.5 167.332 39.168 167.332 38.8164C167.332 38.1523 166.941 37.7422 166.16 37.5859C165.926 37.5078 165.281 37.4688 164.227 37.4688C161.062 37.4688 158.836 37.625 157.547 37.9375C156.141 38.2891 155.34 38.4648 155.145 38.4648C154.363 38.4648 153.973 37.9961 153.973 37.0586C153.973 35.8086 154.324 34.5586 155.027 33.3086C155.73 32.0586 156.609 31.0625 157.664 30.3203C159.383 30.0078 161.082 29.6758 162.762 29.3242C164.793 28.9336 166.512 28.7383 167.918 28.7383C169.793 28.7383 171.453 29.3047 172.898 30.4375C174.539 31.6484 175.359 33.1523 175.359 34.9492ZM213.328 44.0898C213.328 44.3633 213.328 44.6367 213.328 44.9102C213.328 45.9648 213.094 46.9219 212.625 47.7812C212.039 48.7578 211.238 49.2461 210.223 49.2461C209.402 49.2461 208.68 48.6016 208.055 47.3125C207.625 46.2969 207.195 45.2812 206.766 44.2656C206.453 43.6406 206.004 42.6836 205.418 41.3945L204.656 40.75L203.777 40.5156C194.441 42.1953 188.777 43.6797 186.785 44.9688C186.199 45.3594 185.398 46.6875 184.383 48.9531C183.562 50.7891 182.391 51.707 180.867 51.707C180.047 51.707 179.324 51.3945 178.699 50.7695C178.113 50.1445 177.82 49.4219 177.82 48.6016C177.82 47.9766 178.23 47 179.051 45.6719C179.676 44.7344 180.301 43.7969 180.926 42.8594C187.605 31.6484 191.785 21.8828 193.465 13.5625C193.777 11.9219 193.934 9.14844 193.934 5.24219C193.934 3.79688 195.281 3.07422 197.977 3.07422C200.594 3.07422 201.902 3.81641 201.902 5.30078C201.902 5.57422 201.785 6.41406 201.551 7.82031C202.684 12.3906 203.816 16.9609 204.949 21.5312C206.355 26.8438 207.742 31.3555 209.109 35.0664C209.852 35.1055 210.574 35.3789 211.277 35.8867C211.98 36.3945 212.332 37 212.332 37.7031C212.332 38.4844 211.844 39.0898 210.867 39.5195C210.867 39.5586 211.688 41.082 213.328 44.0898ZM202.195 34.9492V34.1875C201.57 32.3125 200.535 29.5781 199.09 25.9844C198.816 25.3984 198.484 25.1055 198.094 25.1055C197.625 25.1055 197.176 25.5352 196.746 26.3945C194.832 30.1445 192.996 33.6016 191.238 36.7656L191.414 37.4102L191.766 37.6445C195.398 36.707 198.719 36.043 201.727 35.6523L202.195 34.9492ZM255.926 29.0312C255.926 34.8125 252.996 40.2422 247.137 45.3203C241.473 50.2031 235.711 52.6445 229.852 52.6445C225.672 52.6445 222.488 51.4531 220.301 49.0703C219.91 47.7031 219.715 46.4922 219.715 45.4375C219.715 43.6797 220.262 42.8008 221.355 42.8008C221.668 42.8008 222.332 43.1523 223.348 43.8555C224.676 44.7539 225.809 45.418 226.746 45.8477C228.309 46.5508 229.91 46.9023 231.551 46.9023C235.066 46.9023 238.836 45.5938 242.859 42.9766C247.273 40.0859 249.48 36.9805 249.48 33.6602C249.48 31.5117 248.387 29.7539 246.199 28.3867C244.285 27.1758 242.195 26.5703 239.93 26.5703C238.445 26.5703 236.219 26.8242 233.25 27.332C229.969 27.8789 227.898 28.4258 227.039 28.9727C225.047 30.1836 223.66 30.7891 222.879 30.7891C222.332 30.7891 221.785 30.6133 221.238 30.2617C219.949 29.4414 219.109 28.2109 218.719 26.5703C218.523 25.6719 218.426 24.1094 218.426 21.8828C218.426 14.9688 220.652 9.69531 225.105 6.0625C229.168 2.78125 234.754 1.02344 241.863 0.789062H242.098C243.855 0.710937 245.77 1.66797 247.84 3.66016C249.949 5.61328 251.004 7.46875 251.004 9.22656C251.004 11.8047 248.582 13.25 243.738 13.5625C243.23 13.2891 242.664 12.7227 242.039 11.8633C241.453 11.0039 240.965 10.4375 240.574 10.1641C235.105 10.9062 231.414 12.1758 229.5 13.9727C227 16.3555 225.75 18.3477 225.75 19.9492C225.75 20.9648 226.102 21.4727 226.805 21.4727C227 21.4727 227.449 21.3359 228.152 21.0625C231.434 19.7344 235.613 19.0703 240.691 19.0703C244.793 19.0703 248.152 19.7148 250.77 21.0039C254.207 22.6836 255.926 25.3594 255.926 29.0312Z" fill="white"/>
</svg>
